<?xml version="1.0" encoding="utf-8"?>
<!-- Generator: Adobe Illustrator 25.4.1, SVG Export Plug-In . SVG Version: 6.00 Build 0)  -->
<svg version="1.1" id="Layer_1" focusable="false" xmlns="http://www.w3.org/2000/svg" xmlns:xlink="http://www.w3.org/1999/xlink"
	 x="0px" y="0px" viewBox="0 0 25 25" style="enable-background:new 0 0 25 25;" xml:space="preserve">
<path d="M22.8,0H2.3C1,0,0,1.1,0,2.6v19.7C0,23.9,1,25,2.3,25h20.4c1.3,0,2.3-1.1,2.3-2.6V2.6C25.1,1.1,24,0,22.8,0z M18.5,8.7
	l-3.7,3.8l3.7,3.8c0.2,0.3,0.2,0.8,0,1l-1.3,1.4c-0.2,0.3-0.7,0.3-1,0l-3.7-3.8l-3.7,3.8c-0.2,0.3-0.7,0.3-1,0l-1.3-1.4
	c-0.2-0.3-0.2-0.8,0-1l3.7-3.8L6.6,8.7c-0.2-0.3-0.2-0.8,0-1l1.3-1.4c0.2-0.3,0.7-0.3,1,0l3.7,3.8l3.7-3.8c0.2-0.3,0.7-0.3,1,0
	l1.3,1.4C18.8,7.9,18.8,8.4,18.5,8.7L18.5,8.7z"/>
</svg>
